<svg width="152" height="36" viewBox="0 0 152 36" fill="none" xmlns="http://www.w3.org/2000/svg">
<path d="M99.3587 7.90548C100.491 5.80188 103.509 5.80188 104.641 7.90549L113.619 24.5777C114.695 26.5764 113.247 29 110.977 29H102H93.0227C90.7526 29 89.305 26.5764 90.3813 24.5777L99.3587 7.90548Z" fill="#FFD82A"/>
<path d="M99.3167 19.3666C100.422 17.1554 103.578 17.1554 104.683 19.3666L107.829 25.6584C108.827 27.6531 107.376 30 105.146 30H102H98.8541C96.624 30 95.1735 27.6531 96.1708 25.6584L99.3167 19.3666Z" fill="#FBFAFE"/>
<path d="M2.37 8H5.37V17.09H15.93V8H18.9V29H15.93V19.61H5.37V29H2.37V8ZM33.0888 29.21C31.6088 29.21 30.2188 28.95 28.9188 28.43C27.6388 27.91 26.5188 27.18 25.5588 26.24C24.5988 25.28 23.8488 24.15 23.3088 22.85C22.7688 21.53 22.4988 20.08 22.4988 18.5C22.4988 16.92 22.7688 15.48 23.3088 14.18C23.8488 12.88 24.5988 11.75 25.5588 10.79C26.5188 9.83 27.6388 9.09 28.9188 8.57C30.2188 8.05 31.6088 7.79 33.0888 7.79C34.5488 7.79 35.9188 8.05 37.1988 8.57C38.4788 9.09 39.5988 9.83 40.5588 10.79C41.5188 11.75 42.2688 12.88 42.8088 14.18C43.3488 15.48 43.6188 16.92 43.6188 18.5C43.6188 20.08 43.3488 21.53 42.8088 22.85C42.2688 24.15 41.5188 25.28 40.5588 26.24C39.5988 27.18 38.4788 27.91 37.1988 28.43C35.9188 28.95 34.5488 29.21 33.0888 29.21ZM33.0888 26.63C34.5088 26.63 35.7788 26.3 36.8988 25.64C38.0388 24.98 38.9388 24.04 39.5988 22.82C40.2588 21.6 40.5888 20.16 40.5888 18.5C40.5888 16.82 40.2588 15.38 39.5988 14.18C38.9388 12.96 38.0388 12.02 36.8988 11.36C35.7788 10.7 34.5088 10.37 33.0888 10.37C31.6488 10.37 30.3588 10.7 29.2188 11.36C28.0788 12.02 27.1788 12.96 26.5188 14.18C25.8788 15.38 25.5588 16.82 25.5588 18.5C25.5588 20.16 25.8788 21.6 26.5188 22.82C27.1788 24.04 28.0788 24.98 29.2188 25.64C30.3588 26.3 31.6488 26.63 33.0888 26.63ZM50.1649 8V26.48H59.7649V29H47.1649V8H50.1649ZM62.9266 8H65.9266V29H62.9266V8ZM77.861 8C80.141 8 82.101 8.43 83.741 9.29C85.401 10.15 86.681 11.37 87.581 12.95C88.501 14.53 88.961 16.41 88.961 18.59C88.961 20.75 88.501 22.61 87.581 24.17C86.681 25.71 85.401 26.9 83.741 27.74C82.101 28.58 80.141 29 77.861 29H70.661V8H77.861ZM77.861 26.48C80.501 26.48 82.501 25.79 83.861 24.41C85.241 23.01 85.931 21.07 85.931 18.59C85.931 16.07 85.241 14.1 83.861 12.68C82.501 11.24 80.501 10.52 77.861 10.52H73.661V26.48H77.861ZM131.661 10.28L120.471 26.48H131.721V29H116.961V26.72L128.121 10.52H117.021V8H131.661V10.28ZM149.681 10.52H138.641V17.09H146.921V19.61H138.641V26.48H149.681V29H135.641V8H149.681V10.52Z" fill="#070311"/>
</svg>
