<svg width="248" height="64" viewBox="0 0 248 64" fill="none" xmlns="http://www.w3.org/2000/svg">
<path d="M9.32 49V15.4H13.832V30.424H30.92V15.4H35.432V49H30.92V33.88H13.832V49H9.32ZM57.9744 49.48C55.3824 49.48 53.0944 49.032 51.1104 48.136C49.1264 47.24 47.4624 45.992 46.1184 44.392C44.7744 42.792 43.7504 40.952 43.0464 38.872C42.3744 36.792 42.0384 34.568 42.0384 32.2C42.0384 29.832 42.3744 27.608 43.0464 25.528C43.7504 23.448 44.7744 21.608 46.1184 20.008C47.4624 18.408 49.1264 17.16 51.1104 16.264C53.0944 15.368 55.3824 14.92 57.9744 14.92C60.5664 14.92 62.8544 15.368 64.8384 16.264C66.8224 17.16 68.4864 18.408 69.8304 20.008C71.1744 21.608 72.1824 23.448 72.8544 25.528C73.5584 27.608 73.9104 29.832 73.9104 32.2C73.9104 34.568 73.5584 36.792 72.8544 38.872C72.1824 40.952 71.1744 42.792 69.8304 44.392C68.4864 45.992 66.8224 47.24 64.8384 48.136C62.8544 49.032 60.5664 49.48 57.9744 49.48ZM57.9744 45.88C60.4384 45.88 62.5024 45.304 64.1664 44.152C65.8624 42.968 67.1264 41.352 67.9584 39.304C68.8224 37.224 69.2544 34.856 69.2544 32.2C69.2544 29.512 68.8224 27.144 67.9584 25.096C67.1264 23.048 65.8624 21.448 64.1664 20.296C62.5024 19.112 60.4384 18.52 57.9744 18.52C55.5104 18.52 53.4304 19.112 51.7344 20.296C50.0704 21.448 48.8064 23.048 47.9424 25.096C47.1104 27.144 46.6944 29.512 46.6944 32.2C46.6944 34.856 47.1104 37.224 47.9424 39.304C48.8064 41.352 50.0704 42.968 51.7344 44.152C53.4304 45.304 55.5104 45.88 57.9744 45.88ZM80.5231 49V15.4H85.0351V45.544H100.683V49H80.5231ZM105.601 49V15.4H110.113V49H105.601ZM118.773 49V15.4H129.525C133.301 15.4 136.389 16.152 138.789 17.656C141.221 19.128 143.013 21.128 144.165 23.656C145.349 26.184 145.941 29.032 145.941 32.2C145.941 35.368 145.349 38.216 144.165 40.744C143.013 43.272 141.221 45.288 138.789 46.792C136.389 48.264 133.301 49 129.525 49H118.773ZM129.045 18.856H123.285V45.544H129.045C131.989 45.544 134.357 45 136.149 43.912C137.941 42.792 139.237 41.224 140.037 39.208C140.869 37.192 141.285 34.856 141.285 32.2C141.285 29.512 140.869 27.176 140.037 25.192C139.237 23.176 137.941 21.624 136.149 20.536C134.357 19.416 131.989 18.856 129.045 18.856ZM189.356 49V46.024L207.02 18.856H189.356V15.4H212.396V18.376L194.732 45.544H212.396V49H189.356ZM218.57 49V15.4H239.21V18.856H223.082V30.232H239.21V33.688H223.082V45.544H239.21V49H218.57Z" fill="black"/>
<path d="M163.843 14.0666C164.967 11.9242 168.034 11.9242 169.157 14.0666L185.696 45.6068C186.744 47.6043 185.295 50 183.039 50H166.5H149.961C147.705 50 146.256 47.6043 147.304 45.6068L163.843 14.0666Z" fill="#F15152"/>
<path d="M163.864 31.85C165 29.7601 168 29.7601 169.136 31.85L176.591 45.5675C177.677 47.5665 176.23 50 173.955 50H166.5H159.045C156.77 50 155.323 47.5665 156.409 45.5675L163.864 31.85Z" fill="white"/>
</svg>
