<svg width="262" height="96" viewBox="0 0 262 96" fill="none" xmlns="http://www.w3.org/2000/svg">
<ellipse cx="57.5" cy="49" rx="18.5" ry="19" fill="#FAE361"/>
<path d="M64 27.2505L69.694 6.00012" stroke="#FAE361" stroke-linecap="round"/>
<path d="M39 20L45 30.3923" stroke="#FAE361" stroke-linecap="round"/>
<path d="M74 34.5564L89.5563 19" stroke="#FAE361" stroke-linecap="round"/>
<path d="M25 19L40.5563 34.5563" stroke="#FAE361" stroke-linecap="round"/>
<path d="M70 30.3923L76 20" stroke="#FAE361" stroke-linecap="round"/>
<path d="M45 6L50.694 27.2504" stroke="#FAE361" stroke-linecap="round"/>
<path d="M57.5 27V15" stroke="#FAE361" stroke-linecap="round"/>
<line y1="48.5" x2="35" y2="48.5" stroke="#FAE361"/>
<line x1="82" y1="48.5" x2="243" y2="48.5" stroke="#FAE361"/>
<path d="M50.8271 72.6484L44.3993 93.6885" stroke="#FAE361" stroke-linecap="round"/>
<path d="M75.5605 80.762L69.9247 70.1678" stroke="#FAE361" stroke-linecap="round"/>
<path d="M41.0867 65L25 80.0073" stroke="#FAE361" stroke-linecap="round"/>
<path d="M89.5176 82.2471L74.5103 66.1604" stroke="#FAE361" stroke-linecap="round"/>
<path d="M44.9397 69.3003L38.5828 79.4782" stroke="#FAE361" stroke-linecap="round"/>
<path d="M69.0786 94.5454L64.1253 73.1103" stroke="#FAE361" stroke-linecap="round"/>
<path d="M57.3147 73.1243L56.8984 85.117" stroke="#FAE361" stroke-linecap="round"/>
<path d="M7.32 65V31.4H11.832V46.424H28.92V31.4H33.432V65H28.92V49.88H11.832V65H7.32ZM81.2419 65V31.4H85.7539V61.544H101.402V65H81.2419ZM106.32 65V31.4H110.832V65H106.32ZM119.492 65V31.4H130.244C134.02 31.4 137.108 32.152 139.508 33.656C141.94 35.128 143.732 37.128 144.884 39.656C146.068 42.184 146.66 45.032 146.66 48.2C146.66 51.368 146.068 54.216 144.884 56.744C143.732 59.272 141.94 61.288 139.508 62.792C137.108 64.264 134.02 65 130.244 65H119.492ZM129.764 34.856H124.004V61.544H129.764C132.708 61.544 135.076 61 136.868 59.912C138.66 58.792 139.956 57.224 140.756 55.208C141.588 53.192 142.004 50.856 142.004 48.2C142.004 45.512 141.588 43.176 140.756 41.192C139.956 39.176 138.66 37.624 136.868 36.536C135.076 35.416 132.708 34.856 129.764 34.856ZM148.889 65L160.745 31.4H166.553L178.361 65H173.656L169.673 53.24H157.433L153.353 65H148.889ZM163.625 35.24L158.585 49.784H168.521L163.625 35.24ZM180.794 65V62.024L198.458 34.856H180.794V31.4H203.834V34.376L186.17 61.544H203.834V65H180.794ZM210.008 65V31.4H230.648V34.856H214.52V46.232H230.648V49.688H214.52V61.544H230.648V65H210.008Z" fill="black"/>
</svg>
