<svg width="234" height="66" viewBox="0 0 234 66" fill="none" xmlns="http://www.w3.org/2000/svg">
<path d="M75 44C75 38.9609 73.0509 34.1282 69.5815 30.565C66.1121 27.0018 61.4065 25 56.5 25C51.5935 25 46.8879 27.0018 43.4185 30.565C39.9491 34.1282 38 38.9609 38 44L56.5 44H75Z" fill="#FAE361"/>
<mask id="path-2-outside-1_20_166" maskUnits="userSpaceOnUse" x="38" y="43" width="37" height="20" fill="black">
<rect fill="white" x="38" y="43" width="37" height="20"/>
<path d="M74 44C74 46.3638 73.5473 48.7044 72.6679 50.8883C71.7884 53.0722 70.4994 55.0565 68.8744 56.7279C67.2493 58.3994 65.3202 59.7252 63.197 60.6298C61.0738 61.5344 58.7981 62 56.5 62C54.2019 62 51.9262 61.5344 49.803 60.6298C47.6798 59.7252 45.7507 58.3994 44.1256 56.7279C42.5006 55.0565 41.2116 53.0722 40.3321 50.8883C39.4527 48.7044 39 46.3638 39 44L56.5 44H74Z"/>
</mask>
<path d="M74 44C74 46.3638 73.5473 48.7044 72.6679 50.8883C71.7884 53.0722 70.4994 55.0565 68.8744 56.7279C67.2493 58.3994 65.3202 59.7252 63.197 60.6298C61.0738 61.5344 58.7981 62 56.5 62C54.2019 62 51.9262 61.5344 49.803 60.6298C47.6798 59.7252 45.7507 58.3994 44.1256 56.7279C42.5006 55.0565 41.2116 53.0722 40.3321 50.8883C39.4527 48.7044 39 46.3638 39 44L56.5 44H74Z" stroke="#FAE361" stroke-width="2" mask="url(#path-2-outside-1_20_166)"/>
<path d="M63 22.2505L68.694 1.00012" stroke="#FAE361" stroke-linecap="round"/>
<path d="M38 15L44 25.3923" stroke="#FAE361" stroke-linecap="round"/>
<path d="M73 29.5564L88.5563 14" stroke="#FAE361" stroke-linecap="round"/>
<path d="M79 39.6938L100.25 33.9998" stroke="#FAE361" stroke-linecap="round"/>
<path d="M12 34L33.2504 39.694" stroke="#FAE361" stroke-linecap="round"/>
<path d="M24 14L39.5563 29.5563" stroke="#FAE361" stroke-linecap="round"/>
<path d="M69 25.3923L75 15" stroke="#FAE361" stroke-linecap="round"/>
<path d="M77 34L87.3923 28" stroke="#FAE361" stroke-linecap="round"/>
<path d="M24 28L34.3923 34" stroke="#FAE361" stroke-linecap="round"/>
<path d="M44 1L49.694 22.2504" stroke="#FAE361" stroke-linecap="round"/>
<path d="M56.5 22V10" stroke="#FAE361" stroke-linecap="round"/>
<path d="M5.96063 61V27.4H10.4726V42.424H27.5606V27.4H32.0726V61H27.5606V45.88H10.4726V61H5.96063ZM79.8825 61V27.4H84.3945V57.544H100.043V61H79.8825ZM104.961 61V27.4H109.473V61H104.961ZM118.133 61V27.4H128.885C132.661 27.4 135.749 28.152 138.149 29.656C140.581 31.128 142.373 33.128 143.525 35.656C144.709 38.184 145.301 41.032 145.301 44.2C145.301 47.368 144.709 50.216 143.525 52.744C142.373 55.272 140.581 57.288 138.149 58.792C135.749 60.264 132.661 61 128.885 61H118.133ZM128.405 30.856H122.645V57.544H128.405C131.349 57.544 133.717 57 135.509 55.912C137.301 54.792 138.597 53.224 139.397 51.208C140.229 49.192 140.645 46.856 140.645 44.2C140.645 41.512 140.229 39.176 139.397 37.192C138.597 35.176 137.301 33.624 135.509 32.536C133.717 31.416 131.349 30.856 128.405 30.856ZM147.529 61L159.385 27.4H165.193L177.001 61H172.297L168.313 49.24H156.073L151.993 61H147.529ZM162.265 31.24L157.225 45.784H167.161L162.265 31.24ZM179.435 61V58.024L197.099 30.856H179.435V27.4H202.475V30.376L184.811 57.544H202.475V61H179.435ZM208.648 61V27.4H229.288V30.856H213.16V42.232H229.288V45.688H213.16V57.544H229.288V61H208.648Z" fill="#1F0812"/>
<path d="M43 46L69 46" stroke="#FAE361" stroke-linecap="round"/>
<path d="M46 49H66" stroke="#FAE361" stroke-linecap="round"/>
<path d="M50 52H63" stroke="#FAE361" stroke-linecap="round"/>
<path d="M53 55H60" stroke="#FAE361" stroke-linecap="round"/>
</svg>
