<svg width="171" height="36" viewBox="0 0 171 36" fill="none" xmlns="http://www.w3.org/2000/svg">
<path d="M43.7427 13.5205L46.546 2.76911" stroke="#FFB60B" stroke-width="1.5" stroke-linecap="round"/>
<path d="M29.0933 8.5459L32.6573 14.8896" stroke="#FFB60B" stroke-width="1.5" stroke-linecap="round"/>
<path d="M49.8828 17.4314L59.1233 7.93546" stroke="#FFB60B" stroke-width="1.5" stroke-linecap="round"/>
<path d="M53.4473 23.6196L66.0701 20.1439" stroke="#FFB60B" stroke-width="1.5" stroke-linecap="round"/>
<path d="M13.6489 20.1438L26.2717 23.6196" stroke="#FFB60B" stroke-width="1.5" stroke-linecap="round"/>
<path d="M20.7773 7.9353L30.0179 17.4312" stroke="#FFB60B" stroke-width="1.5" stroke-linecap="round"/>
<path d="M47.5068 14.8896L51.0709 8.54596" stroke="#FFB60B" stroke-width="1.5" stroke-linecap="round"/>
<path d="M52.2593 20.1438L58.4323 16.4813" stroke="#FFB60B" stroke-width="1.5" stroke-linecap="round"/>
<path d="M20.7773 16.4812L26.9504 20.1437" stroke="#FFB60B" stroke-width="1.5" stroke-linecap="round"/>
<path d="M33.0645 2.76929L35.8678 13.5207" stroke="#FFB60B" stroke-width="1.5" stroke-linecap="round"/>
<path d="M39.8599 12.9231V5.53848" stroke="#FFB60B" stroke-width="1.5" stroke-linecap="round"/>
<path d="M32.8286 28.3635L48.2429 28.3635" stroke="#FFB60B" stroke-linecap="round"/>
<path d="M35.2002 30.5454H45.8716" stroke="#FFB60B" stroke-linecap="round"/>
<path d="M37.5713 32.7273H43.4999" stroke="#FFB60B" stroke-linecap="round"/>
<mask id="path-15-inside-1_64_2036" fill="white">
<path d="M51.5086 25.3847C51.5086 28.2 50.3325 30.9001 48.2389 32.8909C46.1452 34.8817 43.3057 36.0001 40.3449 36.0001C37.3841 36.0001 34.5445 34.8817 32.4509 32.8909C30.3573 30.9001 29.1812 28.2 29.1812 25.3847L40.3449 25.3847H51.5086Z"/>
</mask>
<path d="M51.5086 25.3847C51.5086 28.2 50.3325 30.9001 48.2389 32.8909C46.1452 34.8817 43.3057 36.0001 40.3449 36.0001C37.3841 36.0001 34.5445 34.8817 32.4509 32.8909C30.3573 30.9001 29.1812 28.2 29.1812 25.3847L40.3449 25.3847H51.5086Z" stroke="#FFB60B" stroke-width="2" mask="url(#path-15-inside-1_64_2036)"/>
<path d="M51.5086 25.3847C51.5086 23.9906 51.2199 22.6103 50.6588 21.3223C50.0978 20.0344 49.2755 18.8642 48.2389 17.8785C47.2022 16.8927 45.9715 16.1108 44.6171 15.5773C43.2626 15.0439 41.8109 14.7693 40.3449 14.7693C38.8789 14.7693 37.4272 15.0439 36.0727 15.5773C34.7183 16.1108 33.4876 16.8927 32.4509 17.8785C31.4143 18.8642 30.592 20.0344 30.0309 21.3223C29.4699 22.6103 29.1812 23.9906 29.1812 25.3847L40.3449 25.3847H51.5086Z" fill="#FFB60B"/>
<mask id="path-17-outside-2_64_2036" maskUnits="userSpaceOnUse" x="-1" y="11" width="172" height="26" fill="black">
<rect fill="white" x="-1" y="11" width="172" height="26"/>
<path d="M0.15 36V11.5H3.44V22.455H15.9V11.5H19.19V36H15.9V24.975H3.44V36H0.15ZM61.1949 36V11.5H64.4849V33.48H75.8949V36H61.1949ZM79.4811 36V11.5H82.7711V36H79.4811ZM89.0855 36V11.5H96.9255C99.6789 11.5 101.931 12.0483 103.681 13.145C105.454 14.2183 106.761 15.6767 107.601 17.52C108.464 19.3633 108.896 21.44 108.896 23.75C108.896 26.06 108.464 28.1367 107.601 29.98C106.761 31.8233 105.454 33.2933 103.681 34.39C101.931 35.4633 99.6789 36 96.9255 36H89.0855ZM96.5755 14.02H92.3755V33.48H96.5755C98.7222 33.48 100.449 33.0833 101.756 32.29C103.062 31.4733 104.007 30.33 104.591 28.86C105.197 27.39 105.501 25.6867 105.501 23.75C105.501 21.79 105.197 20.0867 104.591 18.64C104.007 17.17 103.062 16.0383 101.756 15.245C100.449 14.4283 98.7222 14.02 96.5755 14.02ZM110.521 36L119.166 11.5H123.401L132.011 36H128.581L125.676 27.425H116.751L113.776 36H110.521ZM121.266 14.3L117.591 24.905H124.836L121.266 14.3ZM133.785 36V33.83L146.665 14.02H133.785V11.5H150.585V13.67L137.705 33.48H150.585V36H133.785ZM155.087 36V11.5H170.137V14.02H158.377V22.315H170.137V24.835H158.377V33.48H170.137V36H155.087Z"/>
</mask>
<path d="M0.15 36V11.5H3.44V22.455H15.9V11.5H19.19V36H15.9V24.975H3.44V36H0.15ZM61.1949 36V11.5H64.4849V33.48H75.8949V36H61.1949ZM79.4811 36V11.5H82.7711V36H79.4811ZM89.0855 36V11.5H96.9255C99.6789 11.5 101.931 12.0483 103.681 13.145C105.454 14.2183 106.761 15.6767 107.601 17.52C108.464 19.3633 108.896 21.44 108.896 23.75C108.896 26.06 108.464 28.1367 107.601 29.98C106.761 31.8233 105.454 33.2933 103.681 34.39C101.931 35.4633 99.6789 36 96.9255 36H89.0855ZM96.5755 14.02H92.3755V33.48H96.5755C98.7222 33.48 100.449 33.0833 101.756 32.29C103.062 31.4733 104.007 30.33 104.591 28.86C105.197 27.39 105.501 25.6867 105.501 23.75C105.501 21.79 105.197 20.0867 104.591 18.64C104.007 17.17 103.062 16.0383 101.756 15.245C100.449 14.4283 98.7222 14.02 96.5755 14.02ZM110.521 36L119.166 11.5H123.401L132.011 36H128.581L125.676 27.425H116.751L113.776 36H110.521ZM121.266 14.3L117.591 24.905H124.836L121.266 14.3ZM133.785 36V33.83L146.665 14.02H133.785V11.5H150.585V13.67L137.705 33.48H150.585V36H133.785ZM155.087 36V11.5H170.137V14.02H158.377V22.315H170.137V24.835H158.377V33.48H170.137V36H155.087Z" fill="#F1F8F9"/>
<path d="M0.15 36H-0.15V36.3H0.15V36ZM0.15 11.5V11.2H-0.15V11.5H0.15ZM3.44 11.5H3.74V11.2H3.44V11.5ZM3.44 22.455H3.14V22.755H3.44V22.455ZM15.9 22.455V22.755H16.2V22.455H15.9ZM15.9 11.5V11.2H15.6V11.5H15.9ZM19.19 11.5H19.49V11.2H19.19V11.5ZM19.19 36V36.3H19.49V36H19.19ZM15.9 36H15.6V36.3H15.9V36ZM15.9 24.975H16.2V24.675H15.9V24.975ZM3.44 24.975V24.675H3.14V24.975H3.44ZM3.44 36V36.3H3.74V36H3.44ZM0.45 36V11.5H-0.15V36H0.45ZM0.15 11.8H3.44V11.2H0.15V11.8ZM3.14 11.5V22.455H3.74V11.5H3.14ZM3.44 22.755H15.9V22.155H3.44V22.755ZM16.2 22.455V11.5H15.6V22.455H16.2ZM15.9 11.8H19.19V11.2H15.9V11.8ZM18.89 11.5V36H19.49V11.5H18.89ZM19.19 35.7H15.9V36.3H19.19V35.7ZM16.2 36V24.975H15.6V36H16.2ZM15.9 24.675H3.44V25.275H15.9V24.675ZM3.14 24.975V36H3.74V24.975H3.14ZM3.44 35.7H0.15V36.3H3.44V35.7ZM61.1949 36H60.8949V36.3H61.1949V36ZM61.1949 11.5V11.2H60.8949V11.5H61.1949ZM64.4849 11.5H64.7849V11.2H64.4849V11.5ZM64.4849 33.48H64.1849V33.78H64.4849V33.48ZM75.8949 33.48H76.1949V33.18H75.8949V33.48ZM75.8949 36V36.3H76.1949V36H75.8949ZM61.4949 36V11.5H60.8949V36H61.4949ZM61.1949 11.8H64.4849V11.2H61.1949V11.8ZM64.1849 11.5V33.48H64.7849V11.5H64.1849ZM64.4849 33.78H75.8949V33.18H64.4849V33.78ZM75.5949 33.48V36H76.1949V33.48H75.5949ZM75.8949 35.7H61.1949V36.3H75.8949V35.7ZM79.4811 36H79.1811V36.3H79.4811V36ZM79.4811 11.5V11.2H79.1811V11.5H79.4811ZM82.7711 11.5H83.0711V11.2H82.7711V11.5ZM82.7711 36V36.3H83.0711V36H82.7711ZM79.7811 36V11.5H79.1811V36H79.7811ZM79.4811 11.8H82.7711V11.2H79.4811V11.8ZM82.4711 11.5V36H83.0711V11.5H82.4711ZM82.7711 35.7H79.4811V36.3H82.7711V35.7ZM89.0855 36H88.7855V36.3H89.0855V36ZM89.0855 11.5V11.2H88.7855V11.5H89.0855ZM103.681 13.145L103.521 13.3992L103.525 13.4016L103.681 13.145ZM107.601 17.52L107.328 17.6444L107.329 17.6472L107.601 17.52ZM107.601 29.98L107.329 29.8528L107.328 29.8556L107.601 29.98ZM103.681 34.39L103.837 34.6457L103.838 34.6452L103.681 34.39ZM92.3755 14.02V13.72H92.0755V14.02H92.3755ZM92.3755 33.48H92.0755V33.78H92.3755V33.48ZM101.756 32.29L101.911 32.5465L101.915 32.5444L101.756 32.29ZM104.591 28.86L104.313 28.7455L104.312 28.7493L104.591 28.86ZM104.591 18.64L104.312 18.7507L104.314 18.756L104.591 18.64ZM101.756 15.245L101.597 15.4994L101.6 15.5014L101.756 15.245ZM89.3855 36V11.5H88.7855V36H89.3855ZM89.0855 11.8H96.9255V11.2H89.0855V11.8ZM96.9255 11.8C99.6408 11.8 101.832 12.3409 103.521 13.3992L103.84 12.8908C102.029 11.7558 99.7169 11.2 96.9255 11.2V11.8ZM103.525 13.4016C105.248 14.4445 106.513 15.8573 107.328 17.6444L107.874 17.3956C107.008 15.496 105.66 13.9922 103.836 12.8883L103.525 13.4016ZM107.329 17.6472C108.171 19.4457 108.596 21.478 108.596 23.75H109.196C109.196 21.402 108.757 19.281 107.872 17.3928L107.329 17.6472ZM108.596 23.75C108.596 26.022 108.171 28.0543 107.329 29.8528L107.872 30.1072C108.757 28.219 109.196 26.098 109.196 23.75H108.596ZM107.328 29.8556C106.513 31.6433 105.247 33.0684 103.523 34.1348L103.838 34.6452C105.661 33.5182 107.008 32.0034 107.874 30.1044L107.328 29.8556ZM103.524 34.1343C101.834 35.1704 99.6418 35.7 96.9255 35.7V36.3C99.7159 36.3 102.027 35.7563 103.837 34.6457L103.524 34.1343ZM96.9255 35.7H89.0855V36.3H96.9255V35.7ZM96.5755 13.72H92.3755V14.32H96.5755V13.72ZM92.0755 14.02V33.48H92.6755V14.02H92.0755ZM92.3755 33.78H96.5755V33.18H92.3755V33.78ZM96.5755 33.78C98.756 33.78 100.542 33.3775 101.911 32.5464L101.6 32.0336C100.355 32.7891 98.6885 33.18 96.5755 33.18V33.78ZM101.915 32.5444C103.277 31.6929 104.263 30.4984 104.869 28.9707L104.312 28.7493C103.751 30.1616 102.847 31.2538 101.597 32.0356L101.915 32.5444ZM104.868 28.9744C105.492 27.4612 105.801 25.7176 105.801 23.75H105.201C105.201 25.6557 104.902 27.3188 104.313 28.7456L104.868 28.9744ZM105.801 23.75C105.801 21.7598 105.493 20.0153 104.867 18.524L104.314 18.756C104.902 20.158 105.201 21.8202 105.201 23.75H105.801ZM104.869 18.5293C104.263 17.0009 103.276 15.817 101.911 14.9886L101.6 15.5014C102.849 16.2596 103.752 17.3391 104.312 18.7507L104.869 18.5293ZM101.915 14.9906C100.545 14.1346 98.7572 13.72 96.5755 13.72V14.32C98.6872 14.32 100.353 14.7221 101.597 15.4994L101.915 14.9906ZM110.521 36L110.238 35.9002L110.097 36.3H110.521V36ZM119.166 11.5V11.2H118.953L118.883 11.4002L119.166 11.5ZM123.401 11.5L123.684 11.4005L123.613 11.2H123.401V11.5ZM132.011 36V36.3H132.434L132.294 35.9005L132.011 36ZM128.581 36L128.296 36.0963L128.365 36.3H128.581V36ZM125.676 27.425L125.96 27.3287L125.891 27.125H125.676V27.425ZM116.751 27.425V27.125H116.537L116.467 27.3267L116.751 27.425ZM113.776 36V36.3H113.989L114.059 36.0983L113.776 36ZM121.266 14.3L121.55 14.2043L121.27 13.3719L120.982 14.2018L121.266 14.3ZM117.591 24.905L117.307 24.8068L117.169 25.205H117.591V24.905ZM124.836 24.905V25.205H125.253L125.12 24.8093L124.836 24.905ZM110.803 36.0998L119.448 11.5998L118.883 11.4002L110.238 35.9002L110.803 36.0998ZM119.166 11.8H123.401V11.2H119.166V11.8ZM123.118 11.5995L131.728 36.0995L132.294 35.9005L123.684 11.4005L123.118 11.5995ZM132.011 35.7H128.581V36.3H132.011V35.7ZM128.865 35.9037L125.96 27.3287L125.391 27.5213L128.296 36.0963L128.865 35.9037ZM125.676 27.125H116.751V27.725H125.676V27.125ZM116.467 27.3267L113.492 35.9017L114.059 36.0983L117.034 27.5233L116.467 27.3267ZM113.776 35.7H110.521V36.3H113.776V35.7ZM120.982 14.2018L117.307 24.8068L117.874 25.0032L121.549 14.3982L120.982 14.2018ZM117.591 25.205H124.836V24.605H117.591V25.205ZM125.12 24.8093L121.55 14.2043L120.981 14.3957L124.551 25.0007L125.12 24.8093ZM133.785 36H133.485V36.3H133.785V36ZM133.785 33.83L133.533 33.6665L133.485 33.741V33.83H133.785ZM146.665 14.02L146.916 14.1835L147.218 13.72H146.665V14.02ZM133.785 14.02H133.485V14.32H133.785V14.02ZM133.785 11.5V11.2H133.485V11.5H133.785ZM150.585 11.5H150.885V11.2H150.585V11.5ZM150.585 13.67L150.836 13.8335L150.885 13.759V13.67H150.585ZM137.705 33.48L137.453 33.3165L137.152 33.78H137.705V33.48ZM150.585 33.48H150.885V33.18H150.585V33.48ZM150.585 36V36.3H150.885V36H150.585ZM134.085 36V33.83H133.485V36H134.085ZM134.036 33.9935L146.916 14.1835L146.413 13.8565L133.533 33.6665L134.036 33.9935ZM146.665 13.72H133.785V14.32H146.665V13.72ZM134.085 14.02V11.5H133.485V14.02H134.085ZM133.785 11.8H150.585V11.2H133.785V11.8ZM150.285 11.5V13.67H150.885V11.5H150.285ZM150.333 13.5065L137.453 33.3165L137.956 33.6435L150.836 13.8335L150.333 13.5065ZM137.705 33.78H150.585V33.18H137.705V33.78ZM150.285 33.48V36H150.885V33.48H150.285ZM150.585 35.7H133.785V36.3H150.585V35.7ZM155.087 36H154.787V36.3H155.087V36ZM155.087 11.5V11.2H154.787V11.5H155.087ZM170.137 11.5H170.437V11.2H170.137V11.5ZM170.137 14.02V14.32H170.437V14.02H170.137ZM158.377 14.02V13.72H158.077V14.02H158.377ZM158.377 22.315H158.077V22.615H158.377V22.315ZM170.137 22.315H170.437V22.015H170.137V22.315ZM170.137 24.835V25.135H170.437V24.835H170.137ZM158.377 24.835V24.535H158.077V24.835H158.377ZM158.377 33.48H158.077V33.78H158.377V33.48ZM170.137 33.48H170.437V33.18H170.137V33.48ZM170.137 36V36.3H170.437V36H170.137ZM155.387 36V11.5H154.787V36H155.387ZM155.087 11.8H170.137V11.2H155.087V11.8ZM169.837 11.5V14.02H170.437V11.5H169.837ZM170.137 13.72H158.377V14.32H170.137V13.72ZM158.077 14.02V22.315H158.677V14.02H158.077ZM158.377 22.615H170.137V22.015H158.377V22.615ZM169.837 22.315V24.835H170.437V22.315H169.837ZM170.137 24.535H158.377V25.135H170.137V24.535ZM158.077 24.835V33.48H158.677V24.835H158.077ZM158.377 33.78H170.137V33.18H158.377V33.78ZM169.837 33.48V36H170.437V33.48H169.837ZM170.137 35.7H155.087V36.3H170.137V35.7Z" fill="#CECECE" mask="url(#path-17-outside-2_64_2036)"/>
</svg>
