<svg width="198" height="54" viewBox="0 0 198 54" fill="none" xmlns="http://www.w3.org/2000/svg">
<path d="M131.85 12.9979C132.977 10.8719 136.023 10.8719 137.15 12.9979L149.664 36.5945C150.723 38.5926 149.275 41 147.013 41H134.5H121.987C119.725 41 118.277 38.5926 119.336 36.5945L131.85 12.9979Z" fill="#FFD82A"/>
<path d="M131.874 26.7513C133.016 24.6861 135.984 24.6861 137.126 26.7513L142.54 36.5489C143.645 38.5484 142.199 41 139.914 41H134.5H129.086C126.801 41 125.355 38.5484 126.46 36.5489L131.874 26.7513Z" fill="white"/>
<path d="M3.6 41V13H7.36V25.52H21.6V13H25.36V41H21.6V28.4H7.36V41H3.6ZM44.1453 41.4C41.9853 41.4 40.0786 41.0267 38.4253 40.28C36.772 39.5333 35.3853 38.4933 34.2653 37.16C33.1453 35.8267 32.292 34.2933 31.7053 32.56C31.1453 30.8267 30.8653 28.9733 30.8653 27C30.8653 25.0267 31.1453 23.1733 31.7053 21.44C32.292 19.7067 33.1453 18.1733 34.2653 16.84C35.3853 15.5067 36.772 14.4667 38.4253 13.72C40.0786 12.9733 41.9853 12.6 44.1453 12.6C46.3053 12.6 48.212 12.9733 49.8653 13.72C51.5186 14.4667 52.9053 15.5067 54.0253 16.84C55.1453 18.1733 55.9853 19.7067 56.5453 21.44C57.132 23.1733 57.4253 25.0267 57.4253 27C57.4253 28.9733 57.132 30.8267 56.5453 32.56C55.9853 34.2933 55.1453 35.8267 54.0253 37.16C52.9053 38.4933 51.5186 39.5333 49.8653 40.28C48.212 41.0267 46.3053 41.4 44.1453 41.4ZM44.1453 38.4C46.1986 38.4 47.9186 37.92 49.3053 36.96C50.7186 35.9733 51.772 34.6267 52.4653 32.92C53.1853 31.1867 53.5453 29.2133 53.5453 27C53.5453 24.76 53.1853 22.7867 52.4653 21.08C51.772 19.3733 50.7186 18.04 49.3053 17.08C47.9186 16.0933 46.1986 15.6 44.1453 15.6C42.092 15.6 40.3586 16.0933 38.9453 17.08C37.5586 18.04 36.5053 19.3733 35.7853 21.08C35.092 22.7867 34.7453 24.76 34.7453 27C34.7453 29.2133 35.092 31.1867 35.7853 32.92C36.5053 34.6267 37.5586 35.9733 38.9453 36.96C40.3586 37.92 42.092 38.4 44.1453 38.4ZM62.9359 41V13H66.6959V38.12H79.7359V41H62.9359ZM83.8344 41V13H87.5944V41H83.8344ZM94.8109 41V13H103.771C106.918 13 109.491 13.6267 111.491 14.88C113.518 16.1067 115.011 17.7733 115.971 19.88C116.958 21.9867 117.451 24.36 117.451 27C117.451 29.64 116.958 32.0133 115.971 34.12C115.011 36.2267 113.518 37.9067 111.491 39.16C109.491 40.3867 106.918 41 103.771 41H94.8109ZM103.371 15.88H98.5709V38.12H103.371C105.824 38.12 107.798 37.6667 109.291 36.76C110.784 35.8267 111.864 34.52 112.531 32.84C113.224 31.16 113.571 29.2133 113.571 27C113.571 24.76 113.224 22.8133 112.531 21.16C111.864 19.48 110.784 18.1867 109.291 17.28C107.798 16.3467 105.824 15.88 103.371 15.88ZM153.63 41V38.52L168.35 15.88H153.63V13H172.83V15.48L158.11 38.12H172.83V41H153.63ZM177.975 41V13H195.175V15.88H181.735V25.36H195.175V28.24H181.735V38.12H195.175V41H177.975Z" fill="#1F1300"/>
</svg>
